<svg width="32" height="32" viewBox="0 0 32 32" fill="none" xmlns="http://www.w3.org/2000/svg">
<g id="place_24px">
<path id="icon/maps/place_24px" fill-rule="evenodd" clip-rule="evenodd" d="M16 2.66667C10.84 2.66667 6.66667 6.84001 6.66667 12C6.66667 19 16 29.3333 16 29.3333C16 29.3333 25.3333 19 25.3333 12C25.3333 6.84001 21.16 2.66667 16 2.66667ZM9.33334 12C9.33334 8.32 12.32 5.33334 16 5.33334C19.68 5.33334 22.6667 8.32 22.6667 12C22.6667 15.84 18.8267 21.5867 16 25.1733C13.2267 21.6133 9.33334 15.8 9.33334 12ZM12.6667 12C12.6667 10.1591 14.1591 8.66667 16 8.66667C17.1909 8.66667 18.2913 9.302 18.8868 10.3333C19.4822 11.3647 19.4822 12.6353 18.8868 13.6667C18.2913 14.698 17.1909 15.3333 16 15.3333C14.1591 15.3333 12.6667 13.841 12.6667 12Z" fill="#2D9CDB"/>
</g>
</svg>
